<?xml version="1.0" standalone="no"?>
<!DOCTYPE svg PUBLIC "-//W3C//DTD SVG 20010904//EN"
 "http://www.w3.org/TR/2001/REC-SVG-20010904/DTD/svg10.dtd">
<svg version="1.0" xmlns="http://www.w3.org/2000/svg"
 width="500.000000pt" height="500.000000pt" viewBox="0 0 500.000000 500.000000"
 preserveAspectRatio="xMidYMid meet">

<g transform="translate(0.000000,500.000000) scale(0.100000,-0.100000)"
fill="#000000" stroke="none">
<path d="M1284 3606 c-168 -45 -303 -124 -440 -260 -96 -96 -184 -220 -235
-331 -28 -62 -79 -208 -79 -226 0 -5 83 -9 185 -9 l185 0 0 43 c0 23 7 85 15
137 49 318 171 510 373 582 72 26 258 36 341 18 31 -6 92 -29 136 -50 174 -84
278 -209 385 -464 13 -33 24 -46 30 -40 7 7 9 119 8 305 -4 352 1 344 -117
225 l-74 -75 -42 29 c-62 42 -151 85 -230 110 -54 18 -101 23 -210 26 -124 4
-151 1 -231 -20z"/>
<path d="M2350 3585 l0 -25 140 0 140 0 0 -390 0 -390 155 0 155 0 0 390 0
390 135 0 135 0 0 25 0 25 -430 0 -430 0 0 -25z"/>
<path d="M3510 3585 l0 -25 135 0 135 0 0 -390 0 -390 155 0 155 0 0 390 0
390 135 0 135 0 0 25 0 25 -425 0 -425 0 0 -25z"/>
<path d="M1584 2600 c-56 -22 -72 -103 -29 -145 28 -29 89 -34 121 -11 30 22
7 39 -33 24 -28 -10 -35 -9 -52 7 -24 21 -28 67 -7 85 8 6 34 10 57 8 49 -4
62 13 24 30 -30 14 -51 14 -81 2z"/>
<path d="M1825 2524 c-19 -42 -35 -80 -35 -85 0 -18 38 -8 43 11 4 16 14 20
47 20 33 0 43 -4 47 -20 3 -13 14 -20 29 -20 23 0 23 0 -14 85 -31 70 -41 85
-60 85 -18 0 -29 -14 -57 -76z m73 1 c11 -23 10 -25 -13 -25 -26 0 -29 7 -19
34 9 23 19 20 32 -9z"/>
<path d="M2090 2515 c0 -78 2 -85 20 -85 15 0 20 7 20 25 0 18 5 25 18 25 10
0 25 -11 32 -25 9 -16 22 -25 38 -25 l24 0 -20 27 c-18 25 -18 27 0 45 24 24
23 53 -2 78 -15 15 -33 20 -75 20 l-55 0 0 -85z m100 40 c17 -20 -3 -45 -36
-45 -20 0 -24 5 -24 30 0 25 4 30 24 30 13 0 29 -7 36 -15z"/>
<path d="M2360 2515 c0 -78 2 -85 20 -85 16 0 20 7 20 35 0 34 1 35 40 35 39
0 40 -1 40 -35 0 -28 4 -35 20 -35 18 0 20 7 20 85 0 78 -2 85 -20 85 -16 0
-20 -7 -20 -30 0 -28 -2 -30 -40 -30 -38 0 -40 2 -40 30 0 23 -4 30 -20 30
-18 0 -20 -7 -20 -85z"/>
<path d="M2640 2515 c0 -78 2 -85 20 -85 18 0 20 7 20 85 0 78 -2 85 -20 85
-18 0 -20 -7 -20 -85z"/>
<path d="M2810 2515 c0 -78 2 -85 20 -85 15 0 20 7 20 25 0 18 5 25 19 25 10
0 26 -11 35 -25 9 -14 25 -25 36 -25 24 0 25 8 3 32 -15 17 -15 19 0 36 10 10
17 30 17 44 0 40 -29 58 -93 58 l-57 0 0 -85z m108 31 c5 -22 -13 -36 -45 -36
-19 0 -23 5 -23 31 0 28 2 30 32 27 23 -2 34 -9 36 -22z"/>
<path d="M3080 2515 l0 -85 70 0 c56 0 70 3 70 15 0 11 -12 15 -50 15 -43 0
-50 3 -50 20 0 17 7 20 40 20 29 0 40 4 40 15 0 11 -11 15 -40 15 -33 0 -40 3
-40 20 0 17 7 20 45 20 33 0 45 4 45 15 0 12 -14 15 -65 15 l-65 0 0 -85z"/>
<path d="M530 2217 c0 -2 13 -41 29 -88 100 -296 316 -552 573 -679 279 -137
602 -98 818 98 l63 56 91 -97 c50 -53 99 -97 109 -97 16 0 17 23 17 335 0 280
-2 335 -14 335 -8 0 -43 -57 -80 -132 -85 -168 -140 -250 -224 -335 -131 -131
-257 -185 -437 -185 -173 0 -275 40 -376 150 -102 110 -168 290 -191 524 l-12
118 -183 0 c-101 0 -183 -1 -183 -3z"/>
<path d="M2630 1875 l0 -344 -137 -3 -138 -3 0 -25 0 -25 428 -3 427 -2 0 30
0 30 -135 0 -135 0 0 345 0 345 -155 0 -155 0 0 -345z"/>
<path d="M3780 1875 l0 -345 -135 0 -135 0 0 -30 0 -30 425 0 425 0 0 30 0 30
-135 0 -135 0 0 345 0 345 -155 0 -155 0 0 -345z"/>
<path d="M1327 1182 c-22 -24 -21 -55 1 -75 20 -18 57 -23 66 -8 3 4 -6 6 -19
3 -31 -5 -55 13 -55 43 0 30 24 48 55 43 13 -3 22 -1 19 3 -9 16 -50 10 -67
-9z"/>
<path d="M1552 1155 c-22 -45 -31 -86 -11 -52 6 10 22 17 39 17 17 0 34 -7 40
-17 14 -21 9 -6 -15 55 -9 23 -20 42 -24 42 -4 0 -17 -20 -29 -45z m48 -17 c0
-4 -9 -8 -20 -8 -21 0 -24 8 -13 36 6 16 7 16 20 -2 7 -10 13 -21 13 -26z"/>
<path d="M1761 1143 c1 -32 3 -51 6 -42 6 26 42 31 56 8 6 -10 16 -19 21 -19
4 0 3 6 -3 14 -9 10 -9 20 0 40 16 34 -2 56 -47 56 l-34 0 1 -57z m69 32 c16
-19 4 -33 -30 -37 -21 -3 -26 2 -28 25 -3 23 0 27 21 27 14 0 30 -7 37 -15z"/>
<path d="M2141 1143 c0 -32 3 -51 6 -43 3 8 11 18 17 22 8 5 7 8 -1 8 -8 0
-13 13 -13 31 0 27 3 30 28 27 19 -2 28 -9 30 -25 2 -16 -2 -23 -13 -23 -14 0
-14 -2 1 -25 9 -14 19 -23 22 -21 3 3 -1 12 -7 20 -8 10 -9 16 -1 21 16 10 12
52 -6 59 -9 3 -27 6 -40 6 -23 0 -24 -3 -23 -57z"/>
<path d="M2360 1145 l0 -55 43 2 42 1 -37 4 c-30 3 -38 9 -38 24 0 15 7 19 33
20 l32 1 -30 7 c-16 3 -31 14 -33 23 -2 13 6 18 35 21 l38 4 -42 1 -43 2 0
-55z"/>
<path d="M2582 1145 c1 -52 2 -54 5 -16 l4 45 39 -45 39 -44 -1 60 c-1 53 -2
55 -5 15 l-4 -45 -39 45 -39 45 1 -60z"/>
<path d="M2817 1193 c19 -4 23 -12 26 -56 l3 -52 2 52 c2 45 5 52 25 56 12 2
0 4 -28 4 -27 0 -40 -2 -28 -4z"/>
<path d="M3023 1145 c0 -33 2 -45 4 -27 2 18 2 45 0 60 -2 15 -4 0 -4 -33z"/>
<path d="M3172 1143 c1 -50 2 -52 5 -15 2 23 7 42 11 42 4 0 20 -18 36 -40 17
-22 33 -40 38 -40 4 0 8 25 8 55 0 64 -17 75 -22 14 l-3 -41 -30 41 c-16 22
-33 41 -37 41 -5 0 -7 -26 -6 -57z"/>
<path d="M3417 1182 c-36 -40 -5 -96 50 -90 22 2 29 9 30 28 3 25 3 25 -7 3
-11 -27 -42 -30 -64 -7 -34 33 -3 80 46 70 18 -3 27 -2 23 4 -10 17 -61 11
-78 -8z"/>
</g>
</svg>
