<?xml version="1.0" standalone="no"?>
<!DOCTYPE svg PUBLIC "-//W3C//DTD SVG 20010904//EN"
 "http://www.w3.org/TR/2001/REC-SVG-20010904/DTD/svg10.dtd">
<svg version="1.0" xmlns="http://www.w3.org/2000/svg"
 width="500.000000pt" height="135.000000pt" viewBox="0 0 500.000000 135.000000"
 preserveAspectRatio="xMidYMid meet">

<g transform="translate(0.000000,135.000000) scale(0.100000,-0.100000)"
fill="#000000" stroke="none">
<path d="M493 1217 c-94 -35 -177 -131 -209 -241 -45 -160 33 -352 174 -429
93 -51 194 -45 264 13 l33 29 32 -37 32 -37 0 115 1 115 -35 -64 c-43 -80 -66
-105 -122 -132 -34 -16 -57 -20 -97 -17 -69 6 -107 34 -137 100 -23 50 -24 64
-24 243 0 185 1 192 26 240 44 87 121 118 216 90 56 -17 113 -70 141 -134 l17
-36 3 94 c1 51 0 96 -3 99 -3 3 -17 -5 -31 -19 l-25 -26 -46 24 c-52 26 -153
31 -210 10z"/>
<path d="M1192 1209 c-5 -13 -55 -167 -112 -341 l-104 -318 -43 0 c-24 0 -43
-4 -43 -10 0 -6 43 -10 110 -10 67 0 110 4 110 10 0 6 -25 10 -55 10 -38 0
-55 4 -55 13 0 7 13 51 28 97 l29 85 104 0 104 0 32 -90 c17 -49 32 -93 32
-97 1 -5 -21 -8 -49 -8 -27 0 -50 -4 -50 -10 0 -6 57 -10 150 -10 88 0 150 4
150 9 0 6 -21 11 -47 13 l-46 3 -111 332 c-61 182 -114 335 -118 339 -4 4 -11
-4 -16 -17z m18 -296 c24 -71 45 -134 48 -140 3 -10 -19 -13 -92 -13 -68 0
-96 3 -96 12 0 19 84 268 90 268 3 0 26 -57 50 -127z"/>
<path d="M1620 1211 l45 -6 3 -327 2 -328 -45 0 c-25 0 -45 -4 -45 -10 0 -6
54 -10 141 -10 91 0 138 4 134 10 -3 6 -24 10 -46 10 l-39 0 0 165 0 165 63 0
c53 0 67 -4 84 -22 36 -39 44 -66 53 -170 6 -74 14 -108 28 -127 27 -36 71
-47 127 -31 54 15 69 31 23 24 -53 -8 -60 4 -67 112 -10 135 -43 192 -123 209
l-31 7 54 27 c70 34 99 76 99 145 0 63 -31 115 -87 142 -33 16 -63 19 -228 20
-104 1 -170 -1 -145 -5z m325 -31 c33 -31 49 -92 41 -158 -11 -95 -45 -122
-151 -122 l-65 0 0 156 0 157 75 -5 c61 -4 80 -9 100 -28z"/>
<path d="M2270 1211 l45 -6 3 -327 2 -328 -45 0 c-25 0 -45 -4 -45 -10 0 -6
52 -10 135 -10 83 0 135 4 135 10 0 6 -18 10 -40 10 l-40 0 0 170 0 170 135 0
135 0 0 -170 0 -170 -45 0 c-25 0 -45 -4 -45 -10 0 -6 54 -10 141 -10 91 0
138 4 134 10 -3 6 -24 10 -46 10 l-39 0 0 329 0 330 48 4 c26 2 -18 3 -98 3
-80 0 -124 -1 -97 -3 l47 -4 0 -150 0 -149 -135 0 -135 0 0 149 0 150 43 4
c23 2 -21 4 -98 4 -77 0 -120 -3 -95 -6z"/>
<path d="M2983 1213 l47 -4 0 -330 0 -329 -39 0 c-22 0 -43 -4 -46 -10 -4 -6
43 -10 134 -10 87 0 141 4 141 10 0 6 -20 10 -45 10 l-45 0 2 328 3 327 45 6
c25 3 -20 6 -100 6 -80 0 -124 -2 -97 -4z"/>
<path d="M3340 1211 l45 -6 3 -327 2 -328 -45 0 c-25 0 -45 -4 -45 -10 0 -6
54 -10 141 -10 91 0 138 4 134 10 -3 6 -24 10 -46 10 l-39 0 0 165 0 165 63 0
c53 0 67 -4 84 -22 36 -39 44 -66 53 -170 6 -74 14 -108 28 -127 27 -36 71
-47 127 -31 54 15 69 31 23 24 -53 -8 -60 4 -67 112 -10 135 -43 192 -123 209
l-31 7 54 27 c70 34 99 76 99 145 0 63 -31 115 -87 142 -33 16 -63 19 -228 20
-104 1 -170 -1 -145 -5z m325 -31 c33 -31 49 -92 41 -158 -11 -95 -45 -122
-151 -122 l-65 0 0 156 0 157 75 -5 c61 -4 80 -9 100 -28z"/>
<path d="M3993 1213 l47 -4 0 -330 0 -329 -45 0 c-25 0 -45 -4 -45 -10 0 -6
90 -10 250 -10 199 0 252 3 256 13 3 8 3 56 2 108 l-3 94 -13 -45 c-39 -136
-57 -150 -202 -150 l-100 0 0 170 0 170 48 0 c60 0 88 -19 104 -73 l13 -42 3
57 c2 32 2 86 0 120 l-3 63 -13 -42 c-16 -54 -44 -73 -104 -73 l-48 0 0 155 0
155 80 0 c48 0 95 -6 115 -14 41 -18 72 -64 81 -123 3 -24 10 -40 15 -37 10 6
12 144 3 168 -5 14 -36 16 -248 14 -132 -1 -220 -3 -193 -5z"/>
<path d="M724 356 c-36 -16 -58 -61 -48 -100 14 -56 94 -85 140 -51 17 13 14
14 -32 8 -44 -5 -55 -2 -73 16 -28 28 -27 66 4 96 26 27 54 31 86 15 13 -8 19
-7 19 0 0 9 -41 31 -58 30 -4 -1 -21 -7 -38 -14z"/>
<path d="M4060 363 c-62 -23 -81 -103 -35 -148 26 -27 72 -33 106 -15 13 8 19
21 19 46 0 21 -4 33 -10 29 -5 -3 -10 -19 -10 -36 0 -27 -3 -29 -38 -29 -26 0
-45 7 -57 20 -26 29 -24 79 4 102 25 19 76 24 86 8 8 -12 25 -13 25 -1 0 5
-14 14 -31 20 -35 12 -37 12 -59 4z"/>
<path d="M1060 288 c-43 -98 -44 -98 -33 -98 6 0 15 11 21 25 10 21 18 25 57
25 39 0 47 -4 57 -25 11 -25 35 -37 25 -12 -37 90 -72 157 -82 157 -7 0 -27
-33 -45 -72z m80 -25 c0 -8 -13 -13 -35 -13 -40 0 -42 5 -18 55 l17 36 18 -33
c9 -18 17 -39 18 -45z"/>
<path d="M1401 273 c1 -53 4 -76 8 -58 9 44 52 47 82 6 29 -40 45 -40 22 0
-17 29 -17 31 0 40 11 7 17 22 17 44 0 42 -20 55 -84 55 l-46 0 1 -87z m97 65
c16 -16 15 -53 -2 -67 -8 -7 -30 -11 -48 -9 -31 3 -33 5 -36 46 l-3 42 38 0
c22 0 44 -5 51 -12z"/>
<path d="M1990 275 c0 -50 4 -85 10 -85 6 0 10 14 10 30 0 27 3 30 29 30 21 0
36 -8 51 -30 12 -16 26 -30 32 -30 5 0 1 12 -10 27 -20 27 -20 27 1 56 20 26
20 30 6 55 -13 24 -22 27 -72 30 l-57 3 0 -86z m101 65 c11 -6 19 -21 19 -35
0 -28 -26 -45 -69 -45 -30 0 -31 1 -31 45 0 44 1 45 31 45 17 0 39 -5 50 -10z"/>
<path d="M2350 275 l0 -85 60 0 c33 0 60 4 60 10 0 6 -25 10 -55 10 -54 0 -55
0 -55 30 0 29 2 30 45 30 25 0 45 5 45 10 0 6 -20 10 -45 10 -43 0 -45 1 -45
30 0 28 1 29 58 33 l57 3 -62 2 -63 2 0 -85z"/>
<path d="M2690 275 c0 -50 4 -85 10 -85 6 0 10 29 10 68 l1 67 32 -40 c18 -22
44 -53 59 -70 l27 -30 -1 90 -2 90 -5 -70 -6 -69 -53 67 c-30 37 -58 67 -63
67 -5 0 -9 -38 -9 -85z"/>
<path d="M3068 353 l32 -4 0 -80 c0 -46 4 -79 10 -79 6 0 10 33 10 79 l0 80
33 4 c17 2 -2 4 -43 4 -41 0 -60 -2 -42 -4z"/>
<path d="M3380 275 c0 -50 4 -85 10 -85 6 0 10 35 10 85 0 50 -4 85 -10 85 -6
0 -10 -35 -10 -85z"/>
<path d="M3630 275 c0 -103 18 -114 22 -14 l3 71 54 -71 c29 -39 57 -71 62
-71 5 0 9 38 9 85 0 100 -18 115 -22 20 l-3 -65 -50 64 c-27 36 -56 65 -62 66
-10 0 -13 -23 -13 -85z"/>
</g>
</svg>
